<?xml version="1.0" encoding="UTF-8"?>
<svg width="280px" height="254px" viewBox="0 0 280 254" version="1.1" xmlns="http://www.w3.org/2000/svg" xmlns:xlink="http://www.w3.org/1999/xlink">
    <!-- Generator: Sketch 3.8.3 (29802) - http://www.bohemiancoding.com/sketch -->
    <title>repari_group</title>
    <desc>Created with Sketch.</desc>
    <defs></defs>
    <g id="Page-1" stroke="none" stroke-width="1" fill="none" fill-rule="evenodd">
        <g id="repari_group">
            <g id="tablet" transform="translate(149.500000, 81.500000) rotate(90.000000) translate(-149.500000, -81.500000) translate(68.000000, -49.000000)">
                <rect id="monoblock" fill="#FFFFFF" x="-1.91047178e-12" y="-5.68434189e-14" width="162.851453" height="260.562325" rx="11"></rect>
                <path d="M-1.89626093e-12,11.008886 C-1.89626093e-12,4.92884617 4.91818814,-5.68434189e-14 11.0016331,-5.68434189e-14 L151.84982,-5.68434189e-14 C157.925854,-5.68434189e-14 162.851453,4.91508279 162.851453,11.008886 L162.851453,249.553439 C162.851453,255.633478 157.933265,260.562325 151.84982,260.562325 L11.0016331,260.562325 C4.92559892,260.562325 -1.89626093e-12,255.647242 -1.89626093e-12,249.553439 L-1.89626093e-12,11.008886 Z M81.4257264,256.491038 C85.9227451,256.491038 89.5682991,252.845484 89.5682991,248.348466 C89.5682991,243.851447 85.9227451,240.205893 81.4257264,240.205893 C76.9287078,240.205893 73.2831538,243.851447 73.2831538,248.348466 C73.2831538,252.845484 76.9287078,256.491038 81.4257264,256.491038 Z M12.213859,12.213859 L150.637594,12.213859 L150.637594,236.134607 L12.213859,236.134607 L12.213859,12.213859 Z M79.7972119,5.90336517 C79.7972119,4.89153596 80.6104073,4.07128632 81.6292908,4.07128632 C82.64112,4.07128632 83.4613696,4.88448167 83.4613696,5.90336517 C83.4613696,6.91519437 82.6481743,7.73544401 81.6292908,7.73544401 C80.6174616,7.73544401 79.7972119,6.92224866 79.7972119,5.90336517 Z" id="Combined-Shape" fill-opacity="0.9" fill="#050505"></path>
            </g>
            <g id="phone" transform="translate(0.000000, 38.555930)">
                <rect id="monoblock" fill="#FFFFFF" x="0" y="0" width="90.5963335" height="145.041245" rx="8"></rect>
                <path d="M0,8.00464651 C0,3.58380231 3.57938767,0 8.00007839,0 L82.5962551,0 C87.0145764,0 90.5963335,3.58530911 90.5963335,8.00464651 L90.5963335,137.036599 C90.5963335,141.457443 87.0169458,145.041245 82.5962551,145.041245 L8.00007839,145.041245 C3.5817571,145.041245 0,141.455936 0,137.036599 L0,8.00464651 Z M45.2981667,142.774976 C48.4253526,142.774976 50.9604376,140.238367 50.9604376,137.109302 C50.9604376,133.980237 48.4253526,131.443629 45.2981667,131.443629 C42.1709809,131.443629 39.6358959,133.980237 39.6358959,137.109302 C39.6358959,140.238367 42.1709809,142.774976 45.2981667,142.774976 Z M6.09783014,7.93194311 L84.4985033,7.93194311 L84.4985033,129.177359 L6.09783014,129.177359 L6.09783014,7.93194311 Z M36.1514215,4.0633769 C36.1514215,3.5031051 36.6046993,3.04891507 37.1634204,3.04891507 L53.476469,3.04891507 C54.0353806,3.04891507 54.4884679,3.49919899 54.4884679,4.0633769 C54.4884679,4.62364871 54.0351901,5.07783874 53.476469,5.07783874 L37.1634204,5.07783874 C36.6045089,5.07783874 36.1514215,4.62755482 36.1514215,4.0633769 Z" id="Combined-Shape" fill-opacity="0.9" fill="#050505"></path>
            </g>
            <g id="repair" transform="translate(83.779999, 95.000000)">
                <g id="repair_bg" transform="translate(0.133088, 0.043011)" stroke="#FFFFFF" stroke-width="10" fill="#FFFFFF">
                    <path d="M140.758577,133.712719 C140.721383,137.53291 139.453561,140.871754 136.751354,143.61978 C134.79356,145.607417 132.818518,147.574662 130.826226,149.521516 C128.623877,151.702978 125.744138,153.077365 122.656535,153.42059 C118.79647,153.882619 115.335833,152.870019 112.240665,150.555044 C111.709798,150.143834 111.208855,149.695709 110.741595,149.214033 L83.6338111,122.234438 C83.2505536,121.852902 82.8624448,121.472976 82.4856558,121.08339 C81.3934207,119.965377 80.7134541,118.512256 80.5564316,116.960546 C80.3947196,115.44728 80.1392146,113.953333 79.6185019,112.514121 C77.9012882,107.687435 73.6370595,104.206806 68.5460809,103.476383 C68.0868188,103.410379 67.6227053,103.363693 67.1585919,103.334716 C63.5572655,103.107726 60.5089942,100.115001 60.5122284,96.3592047 C60.5122284,94.4386451 61.1364368,92.7740529 62.4802635,91.3944053 C63.5782881,90.2675054 64.695718,89.1583138 65.8050624,88.041073 C65.9861798,87.8575493 66.1721486,87.6772453 66.3532661,87.4953314 C67.0001141,86.8513886 66.9548347,86.9061237 66.3532661,86.2927682 C64.1863252,84.0808245 62.0183062,81.8694174 59.8492092,79.658547 C55.7136942,75.4364284 51.5792572,71.2137732 47.4458983,66.9905814 L41.488428,60.8988821 L28.7018597,47.8461607 C26.9877124,46.0946361 25.2735652,44.342575 23.5594179,42.5899772 C23.0904531,42.1070201 22.6360423,41.6240629 22.1719289,41.1330565 C21.7628606,40.7027809 21.3240916,40.3014859 20.8588274,39.9321031 C20.1714362,39.3796666 19.3527883,39.0126524 18.4816609,38.8663777 C17.6393138,38.7306094 16.8064477,38.5418785 15.9880618,38.3013179 C14.5410399,37.8722877 13.2526702,37.0291753 12.2832397,35.8768731 C9.45813096,32.587935 6.70902685,29.2507012 4.05371571,25.8249253 C3.08344368,24.5611874 2.12934284,23.2716919 1.17362488,21.9918555 C0.885633312,21.6265286 0.647466756,21.2248713 0.465326298,20.7973415 C0.106325644,19.8893821 0.180713167,19.0264987 0.78875031,18.2489377 C0.881800226,18.1255048 0.982244048,18.0077715 1.08953464,17.896379 C2.24847069,16.746941 3.40363345,15.5991129 4.55502293,14.4528947 C4.81327415,14.1989687 5.11291737,13.9904871 5.44120473,13.8363194 C5.92848026,13.583863 6.49423267,13.5262749 7.02274815,13.6753337 C7.59118908,13.8518887 8.12502252,14.1241406 8.60105733,14.4802622 C10.603052,15.8969365 12.5549159,17.378005 14.469586,18.9138087 C16.5664517,20.5891333 18.6530756,22.2773368 20.7294578,23.9784192 C21.3892428,24.5161115 22.0069826,25.1053192 22.6700019,25.6430114 C24.0299998,26.7505931 24.7948976,28.2187828 25.23152,29.8672765 C25.3952626,30.4634102 25.5232411,31.0687122 25.6147775,31.6799756 C25.7719584,32.704027 26.2344931,33.6574709 26.9424331,34.4167327 C27.2141092,34.7258252 27.4987224,35.0268685 27.7946553,35.3150329 C31.2024663,38.6334851 34.6086602,41.9444245 38.013237,45.2478513 L50.8450847,57.7081453 L57.0677627,63.7483292 L63.3454228,69.8432482 L70.3459355,76.6384551 C71.3280664,77.5904172 72.3107364,78.5413062 73.2939454,79.4911219 C73.4223923,79.6177482 73.5579062,79.7370668 73.6998425,79.8485101 C73.7834414,79.9170484 73.904091,79.9170484 73.9876899,79.8485101 C74.1267622,79.7358201 74.2593661,79.6118612 74.3871185,79.4862923 C75.5967244,78.2864121 76.8052521,77.0859953 78.0127017,75.8850419 C78.4482056,75.4441152 78.9283493,75.0492092 79.4454701,74.7066265 C82.0328622,73.0211061 85.8508827,73.2287777 88.2329005,75.6274648 C89.4990385,76.8693153 90.2495027,78.5399316 90.3351566,80.3073194 C90.4829769,83.1060109 91.4823837,85.7937497 93.2006933,88.0137054 C95.4743641,90.9774523 98.5371895,92.6694122 102.191881,93.313355 C102.853283,93.4292647 103.522771,93.4952689 104.189024,93.5870307 C105.767554,93.7932378 107.23038,94.5224998 108.341788,95.657307 L115.324513,102.594181 C120.30093,107.546102 125.27627,112.498559 130.250531,117.451553 C132.444963,119.637738 134.650715,121.811046 136.822507,124.01977 C139.03311,126.273569 140.284761,128.986179 140.668019,132.104472 C140.698744,132.360439 140.740789,132.614797 140.755343,132.870764 C140.76828,133.146049 140.758577,133.429384 140.758577,133.712719 L140.758577,133.712719 Z M119.229858,65.3678455 C116.79496,65.3839354 114.36814,65.0874238 112.009417,64.4856438 C110.444872,64.0804943 108.791778,64.1773978 107.285809,64.7625392 C106.359933,65.1005232 105.510693,65.6181757 104.787359,66.285464 C104.431592,66.623534 104.085528,66.9712631 103.737848,67.3173824 L96.1115095,74.904639 C96.0015453,75.0141092 95.8948154,75.1251894 95.7783827,75.2266104 C95.6166707,75.3634482 95.5083237,75.3457398 95.404828,75.1702654 C95.3255891,75.0366472 95.2576701,74.8981995 95.1865168,74.7613617 C93.3263291,71.0466993 89.8280921,68.4118524 85.7314515,67.6398748 C81.6348108,66.8678971 77.4112466,68.0476351 74.3159653,70.8284808 C73.7887841,71.2953393 73.7904012,71.3114379 73.3262878,70.8542385 C71.1022087,68.6991764 68.8802857,66.5419679 66.6605189,64.3826129 C65.9926483,63.7386701 66.0136709,63.8400911 66.6459648,63.2090271 C72.5182668,57.3630993 78.393803,51.5187814 84.2725735,45.6760733 C84.9727865,44.9790052 85.613166,44.2449103 86.0594911,43.3594889 C86.7285871,42.0985993 87.0028914,40.6670723 86.8470286,39.2495237 C86.7322131,38.2836094 86.5785867,37.3176952 86.4492171,36.3437316 C86.2470771,34.8320758 86.2503113,33.3123707 86.2761852,31.7926656 C86.3489556,27.4589302 87.3418674,23.3296468 89.1109967,19.3790574 C92.4750662,11.9203361 98.5473914,6.00352227 106.110163,2.81523762 C117.492026,-2.00805337 130.636108,0.00335173732 140.037342,8.0070268 C140.490135,8.39017279 140.480433,8.48998393 139.975891,8.77009907 C137.324892,10.2211169 134.672815,11.6699883 132.01966,13.1167133 C129.165983,14.6836408 126.314461,16.2511051 123.465095,17.8191059 C121.629664,18.8236567 119.786147,19.8169385 117.949099,20.8182697 C116.475902,21.6231982 115.010792,22.4458352 113.52951,23.2330553 C113.159189,23.4294579 112.999094,23.6677168 113.015265,24.08145 C113.036288,24.5949944 113.015265,25.1117586 112.999094,25.6269129 C112.935488,28.7682807 112.870803,31.9096485 112.80504,35.0510164 C112.790486,35.6949592 112.77108,36.3389021 112.725801,36.9828449 C112.670915,37.3470663 112.862064,37.7041073 113.196383,37.8618269 C114.313813,38.5057697 115.411837,39.189959 116.51633,39.8596596 L124.07475,44.4300439 C124.938292,44.9516376 124.757174,44.913001 125.530158,44.4879987 C128.50458,42.8781416 131.474152,41.2554057 134.438872,39.6197908 L143.211748,34.8191969 C145.65899,33.4808691 148.106232,32.1393215 150.553473,30.7945542 C151.362033,30.3486238 151.405696,30.3647223 151.449358,31.3113183 C151.782207,38.8983264 149.431376,46.3612226 144.806229,52.4004464 C140.915811,57.4646677 135.649834,61.3137328 129.631174,63.4923619 C127.515022,64.2542233 125.325788,64.7974552 123.098009,65.113488 C122.612873,65.1859316 122.127737,65.2390569 121.632898,65.2744737 C120.834041,65.3211596 120.031949,65.338868 119.229858,65.3678455 L119.229858,65.3678455 Z M1.9886534,133.603249 C2.05172108,129.673588 3.40686769,126.259081 6.17699435,123.440221 C8.34716948,121.231497 10.5561555,119.06141 12.7505874,116.875224 L39.6982761,90.0566141 L50.0623986,79.7342103 C50.6849898,79.1144153 50.6219221,79.0902674 51.239662,79.7342103 C53.0184941,81.5662277 54.8215829,83.3773169 56.613352,85.1980653 C57.044584,85.6391662 57.4725817,86.0861698 57.8973453,86.5390763 C58.1609358,86.8208013 58.1657872,86.880366 57.8973453,87.1830191 C57.4273844,87.6950238 56.9950362,88.2400259 56.6036492,88.8138044 C55.1149368,90.9726252 54.3146716,93.5281437 54.3073387,96.1467035 C54.2749963,99.7205863 55.523413,102.793804 57.9442418,105.400162 C58.9887345,106.513795 60.2261817,107.431032 61.597316,108.107942 C62.405876,108.513626 62.4673266,108.429913 61.7331541,109.164008 C57.8240358,113.034105 53.9230032,116.907957 50.0300562,120.785567 C42.4026399,128.379799 34.7757626,135.973495 27.1494244,143.566655 C26.4073794,144.320319 25.5951802,145.002198 24.7237443,145.603124 C22.7064103,146.978877 20.3674951,147.814887 17.9318401,148.030788 C14.3919643,148.360809 11.1399358,147.539782 8.24043955,145.511362 C4.86065862,143.148092 2.83602431,139.905839 2.1503654,135.83934 C2.0408201,135.099002 1.98676685,134.351574 1.9886534,133.603249 L1.9886534,133.603249 L1.9886534,133.603249 Z" id="Combined-Shape"></path>
                </g>
                <g transform="translate(0.133088, 0.043011)" id="Shape">
                    <path d="M140.758577,133.712719 C140.721383,137.53291 139.453561,140.871754 136.751354,143.61978 C134.79356,145.607417 132.818518,147.574662 130.826226,149.521516 C128.623877,151.702978 125.744138,153.077365 122.656535,153.42059 C118.79647,153.882619 115.335833,152.870019 112.240665,150.555044 C111.709798,150.143834 111.208855,149.695709 110.741595,149.214033 L83.6338111,122.234438 C83.2505536,121.852902 82.8624448,121.472976 82.4856558,121.08339 C81.3934207,119.965377 80.7134541,118.512256 80.5564316,116.960546 C80.3947196,115.44728 80.1392146,113.953333 79.6185019,112.514121 C77.9012882,107.687435 73.6370595,104.206806 68.5460809,103.476383 C68.0868188,103.410379 67.6227053,103.363693 67.1585919,103.334716 C63.5572655,103.107726 60.5089942,100.115001 60.5122284,96.3592047 C60.5122284,94.4386451 61.1364368,92.7740529 62.4802635,91.3944053 C63.5782881,90.2675054 64.695718,89.1583138 65.8050624,88.041073 C65.9861798,87.8575493 66.1721486,87.6772453 66.3532661,87.4953314 C67.0001141,86.8513886 66.9548347,86.9061237 66.3532661,86.2927682 C64.1863252,84.0808245 62.0183062,81.8694174 59.8492092,79.658547 C55.7136942,75.4364284 51.5792572,71.2137732 47.4458983,66.9905814 L41.488428,60.8988821 L28.7018597,47.8461607 C26.9877124,46.0946361 25.2735652,44.342575 23.5594179,42.5899772 C23.0904531,42.1070201 22.6360423,41.6240629 22.1719289,41.1330565 C21.7628606,40.7027809 21.3240916,40.3014859 20.8588274,39.9321031 C20.1714362,39.3796666 19.3527883,39.0126524 18.4816609,38.8663777 C17.6393138,38.7306094 16.8064477,38.5418785 15.9880618,38.3013179 C14.5410399,37.8722877 13.2526702,37.0291753 12.2832397,35.8768731 C9.45813096,32.587935 6.70902685,29.2507012 4.05371571,25.8249253 C3.08344368,24.5611874 2.12934284,23.2716919 1.17362488,21.9918555 C0.885633312,21.6265286 0.647466756,21.2248713 0.465326298,20.7973415 C0.106325644,19.8893821 0.180713167,19.0264987 0.78875031,18.2489377 C0.881800226,18.1255048 0.982244048,18.0077715 1.08953464,17.896379 C2.24847069,16.746941 3.40363345,15.5991129 4.55502293,14.4528947 C4.81327415,14.1989687 5.11291737,13.9904871 5.44120473,13.8363194 C5.92848026,13.583863 6.49423267,13.5262749 7.02274815,13.6753337 C7.59118908,13.8518887 8.12502252,14.1241406 8.60105733,14.4802622 C10.603052,15.8969365 12.5549159,17.378005 14.469586,18.9138087 C16.5664517,20.5891333 18.6530756,22.2773368 20.7294578,23.9784192 C21.3892428,24.5161115 22.0069826,25.1053192 22.6700019,25.6430114 C24.0299998,26.7505931 24.7948976,28.2187828 25.23152,29.8672765 C25.3952626,30.4634102 25.5232411,31.0687122 25.6147775,31.6799756 C25.7719584,32.704027 26.2344931,33.6574709 26.9424331,34.4167327 C27.2141092,34.7258252 27.4987224,35.0268685 27.7946553,35.3150329 C31.2024663,38.6334851 34.6086602,41.9444245 38.013237,45.2478513 L50.8450847,57.7081453 L57.0677627,63.7483292 L63.3454228,69.8432482 L70.3459355,76.6384551 C71.3280664,77.5904172 72.3107364,78.5413062 73.2939454,79.4911219 C73.4223923,79.6177482 73.5579062,79.7370668 73.6998425,79.8485101 C73.7834414,79.9170484 73.904091,79.9170484 73.9876899,79.8485101 C74.1267622,79.7358201 74.2593661,79.6118612 74.3871185,79.4862923 C75.5967244,78.2864121 76.8052521,77.0859953 78.0127017,75.8850419 C78.4482056,75.4441152 78.9283493,75.0492092 79.4454701,74.7066265 C82.0328622,73.0211061 85.8508827,73.2287777 88.2329005,75.6274648 C89.4990385,76.8693153 90.2495027,78.5399316 90.3351566,80.3073194 C90.4829769,83.1060109 91.4823837,85.7937497 93.2006933,88.0137054 C95.4743641,90.9774523 98.5371895,92.6694122 102.191881,93.313355 C102.853283,93.4292647 103.522771,93.4952689 104.189024,93.5870307 C105.767554,93.7932378 107.23038,94.5224998 108.341788,95.657307 L115.324513,102.594181 C120.30093,107.546102 125.27627,112.498559 130.250531,117.451553 C132.444963,119.637738 134.650715,121.811046 136.822507,124.01977 C139.03311,126.273569 140.284761,128.986179 140.668019,132.104472 C140.698744,132.360439 140.740789,132.614797 140.755343,132.870764 C140.76828,133.146049 140.758577,133.429384 140.758577,133.712719 L140.758577,133.712719 Z" stroke="#333333" fill="#FFF466"></path>
                    <path d="M119.229858,65.3678455 C116.79496,65.3839354 114.36814,65.0874238 112.009417,64.4856438 C110.444872,64.0804943 108.791778,64.1773978 107.285809,64.7625392 C106.359933,65.1005232 105.510693,65.6181757 104.787359,66.285464 C104.431592,66.623534 104.085528,66.9712631 103.737848,67.3173824 L96.1115095,74.904639 C96.0015453,75.0141092 95.8948154,75.1251894 95.7783827,75.2266104 C95.6166707,75.3634482 95.5083237,75.3457398 95.404828,75.1702654 C95.3255891,75.0366472 95.2576701,74.8981995 95.1865168,74.7613617 C93.3263291,71.0466993 89.8280921,68.4118524 85.7314515,67.6398748 C81.6348108,66.8678971 77.4112466,68.0476351 74.3159653,70.8284808 C73.7887841,71.2953393 73.7904012,71.3114379 73.3262878,70.8542385 C71.1022087,68.6991764 68.8802857,66.5419679 66.6605189,64.3826129 C65.9926483,63.7386701 66.0136709,63.8400911 66.6459648,63.2090271 C72.5182668,57.3630993 78.393803,51.5187814 84.2725735,45.6760733 C84.9727865,44.9790052 85.613166,44.2449103 86.0594911,43.3594889 C86.7285871,42.0985993 87.0028914,40.6670723 86.8470286,39.2495237 C86.7322131,38.2836094 86.5785867,37.3176952 86.4492171,36.3437316 C86.2470771,34.8320758 86.2503113,33.3123707 86.2761852,31.7926656 C86.3489556,27.4589302 87.3418674,23.3296468 89.1109967,19.3790574 C92.4750662,11.9203361 98.5473914,6.00352227 106.110163,2.81523762 C117.492026,-2.00805337 130.636108,0.00335173732 140.037342,8.0070268 C140.490135,8.39017279 140.480433,8.48998393 139.975891,8.77009907 C137.324892,10.2211169 134.672815,11.6699883 132.01966,13.1167133 C129.165983,14.6836408 126.314461,16.2511051 123.465095,17.8191059 C121.629664,18.8236567 119.786147,19.8169385 117.949099,20.8182697 C116.475902,21.6231982 115.010792,22.4458352 113.52951,23.2330553 C113.159189,23.4294579 112.999094,23.6677168 113.015265,24.08145 C113.036288,24.5949944 113.015265,25.1117586 112.999094,25.6269129 C112.935488,28.7682807 112.870803,31.9096485 112.80504,35.0510164 C112.790486,35.6949592 112.77108,36.3389021 112.725801,36.9828449 C112.670915,37.3470663 112.862064,37.7041073 113.196383,37.8618269 C114.313813,38.5057697 115.411837,39.189959 116.51633,39.8596596 L124.07475,44.4300439 C124.938292,44.9516376 124.757174,44.913001 125.530158,44.4879987 C128.50458,42.8781416 131.474152,41.2554057 134.438872,39.6197908 L143.211748,34.8191969 C145.65899,33.4808691 148.106232,32.1393215 150.553473,30.7945542 C151.362033,30.3486238 151.405696,30.3647223 151.449358,31.3113183 C151.782207,38.8983264 149.431376,46.3612226 144.806229,52.4004464 C140.915811,57.4646677 135.649834,61.3137328 129.631174,63.4923619 C127.515022,64.2542233 125.325788,64.7974552 123.098009,65.113488 C122.612873,65.1859316 122.127737,65.2390569 121.632898,65.2744737 C120.834041,65.3211596 120.031949,65.338868 119.229858,65.3678455 L119.229858,65.3678455 Z" fill="#333333"></path>
                    <path d="M1.9886534,133.603249 C2.05172108,129.673588 3.40686769,126.259081 6.17699435,123.440221 C8.34716948,121.231497 10.5561555,119.06141 12.7505874,116.875224 L39.6982761,90.0566141 L50.0623986,79.7342103 C50.6849898,79.1144153 50.6219221,79.0902674 51.239662,79.7342103 C53.0184941,81.5662277 54.8215829,83.3773169 56.613352,85.1980653 C57.044584,85.6391662 57.4725817,86.0861698 57.8973453,86.5390763 C58.1609358,86.8208013 58.1657872,86.880366 57.8973453,87.1830191 C57.4273844,87.6950238 56.9950362,88.2400259 56.6036492,88.8138044 C55.1149368,90.9726252 54.3146716,93.5281437 54.3073387,96.1467035 C54.2749963,99.7205863 55.523413,102.793804 57.9442418,105.400162 C58.9887345,106.513795 60.2261817,107.431032 61.597316,108.107942 C62.405876,108.513626 62.4673266,108.429913 61.7331541,109.164008 C57.8240358,113.034105 53.9230032,116.907957 50.0300562,120.785567 C42.4026399,128.379799 34.7757626,135.973495 27.1494244,143.566655 C26.4073794,144.320319 25.5951802,145.002198 24.7237443,145.603124 C22.7064103,146.978877 20.3674951,147.814887 17.9318401,148.030788 C14.3919643,148.360809 11.1399358,147.539782 8.24043955,145.511362 C4.86065862,143.148092 2.83602431,139.905839 2.1503654,135.83934 C2.0408201,135.099002 1.98676685,134.351574 1.9886534,133.603249 L1.9886534,133.603249 Z" fill="#333333"></path>
                </g>
            </g>
        </g>
    </g>
</svg>